<?xml version="1.0" encoding="utf-8"?>
<!-- Generator: Adobe Illustrator 25.0.0, SVG Export Plug-In . SVG Version: 6.00 Build 0)  -->
<svg version="1.1" id="Capa_1" xmlns="http://www.w3.org/2000/svg" xmlns:xlink="http://www.w3.org/1999/xlink" x="0px" y="0px"
	 viewBox="0 0 128 128" style="enable-background:new 0 0 128 128;" xml:space="preserve">
<style type="text/css">
	.st0{fill:#00F1DA;}
	.st1{fill:#065D89;}
	.st2{fill:#006B77;}
	.st3{fill:#30A8F2;}
	.st4{fill:#00C5DA;}
</style>
<g>
	<path class="st0" d="M7.74,40.17l0.07,40.04c0.01,6.97,3.49,13.94,9.1,18.21l32.16,24.53c2.8,2.13,5.92,3.44,9.06,3.88
		c3.13,0.44,6.27,0.01,9.05-1.34l32.1-15.5c0.28-0.14,0.56-0.29,0.83-0.44c-0.07,0.04-0.13,0.08-0.2,0.12l11.97-6.51
		c5.21-2.83,8.41-8.64,8.4-15.34l-0.07-40.04c-0.01-6.96-3.49-13.94-9.08-18.19L78.93,5.05C76.14,2.92,73,1.61,69.87,1.17
		c-3.13-0.44-6.26-0.01-9.05,1.34L28.74,18.01c-0.22,0.11-0.44,0.22-0.66,0.34l-11.97,6.51c0.22-0.12,0.43-0.23,0.66-0.34
		C11.18,27.21,7.73,33.21,7.74,40.17z M20.88,33.83c-0.01-4.84,1.79-9.16,4.85-12.1c0.11-0.11,0.24-0.19,0.37-0.26l23.34-11.27
		c2.6-1.27,5.54-1.66,8.46-1.25c2.93,0.41,5.86,1.63,8.48,3.63L98.55,37.1c5.23,3.99,8.49,10.51,8.5,17.02l0.07,40.04
		c0.01,4.81-1.75,9.12-4.77,12.07c-0.11,0.11-0.24,0.2-0.38,0.26l-23.41,11.31c-2.61,1.26-5.54,1.66-8.47,1.25
		c-2.93-0.41-5.86-1.64-8.47-3.63L29.45,90.9c-5.23-3.99-8.48-10.52-8.49-17.03L20.88,33.83z"/>
	<g>
		<path class="st1" d="M99.69,75.19l-16.54,7.02l-15.97-7.9l-0.19,0.08l-0.21,0.58l0.19-0.08l15.97,7.9l16.54-7.02
			c0,0,0.01,0,0.01,0c0.03-0.02,0.05-0.04,0.06-0.06c0,0,0,0,0,0l0.21-0.58C99.74,75.15,99.72,75.17,99.69,75.19z"/>
		<path class="st1" d="M47.57,97.06l-0.21,0.58c-0.04,0.1,0.09,0.21,0.2,0.16l16.1-6.89l0.21-0.58l-16.1,6.89
			C47.66,97.27,47.53,97.16,47.57,97.06z"/>
	</g>
	<g>
		<path class="st2" d="M31.31,64.24c-1.93-2.92-2.8-5.71-2.85-8.27c-0.03-1.54,0.23-2.99,0.73-4.34l0,0l-0.21,0.58
			c-0.83,2.25-1,4.79-0.25,7.52c0.45,1.64,1.22,3.34,2.38,5.1v0l0.23,0.04c2.58-2.4,5.12-4.85,7.69-7.44l0.21-0.58
			c-2.56,2.58-5.1,5.04-7.69,7.44L31.31,64.24z"/>
		<polygon class="st2" points="29.18,51.63 29.18,51.63 29.18,51.63 		"/>
		<path class="st2" d="M59.31,64.95c-4.37,11.02-8.96,22.22-13.36,33.17l-1.61,0.72c-0.11,0.05-0.23-0.05-0.2-0.15
			c1.74-7.01,3.68-14.26,5.45-21.21c1.19-5.37,2.45-10.76,1.7-16.64c-0.79-4.64-4.33-12.93-9.98-10.53
			c-0.13,0.05-0.26,0.11-0.39,0.18c-0.08,0.04-0.17,0.1-0.25,0.14c-0.07,0.04-0.14,0.07-0.21,0.11c-0.24,0.14-0.47,0.29-0.71,0.47
			c-0.46,0.4-0.78,0.86-0.98,1.39l-0.21,0.58c0.2-0.53,0.52-1,0.98-1.39c0.24-0.18,0.48-0.33,0.71-0.47
			c0.07-0.04,0.14-0.08,0.21-0.12c0.22-0.12,0.43-0.23,0.64-0.32c5.65-2.4,9.18,5.89,9.98,10.53c0.75,5.88-0.51,11.27-1.7,16.64
			c-1.78,6.95-3.71,14.2-5.45,21.21c-0.03,0.11,0.09,0.2,0.2,0.15l1.61-0.72c4.4-10.95,8.99-22.15,13.36-33.17
			c0.06-0.16,0.12-0.32,0.18-0.48l0.21-0.58C59.43,64.63,59.37,64.79,59.31,64.95z"/>
	</g>
	<path class="st3" d="M75.39,28.63c0.16-0.11,0.29-0.04,0.27,0.08l-6.33,33.55l30.33,12.7c0.12,0.05,0.13,0.18,0.02,0.23
		l-16.54,7.02l-15.97-7.9l-0.19,0.08l-3.1,15.93l-16.1,6.89c-0.11,0.05-0.24-0.07-0.2-0.17L75.39,28.63z"/>
	<path class="st4" d="M38,43.03c9.3-3.95,22.14-0.89,22.78,15.02c0.09,2.31-0.67,4.83-1.47,6.89c-4.37,11.02-8.96,22.22-13.36,33.17
		l-1.61,0.72c-0.11,0.05-0.23-0.05-0.2-0.15c1.74-7.01,3.68-14.26,5.45-21.21c1.19-5.37,2.45-10.76,1.7-16.64
		c-0.79-4.64-4.33-12.93-9.98-10.53c-0.5,0.21-1.02,0.51-1.56,0.91c-1.43,1.23-1.56,3.15-0.54,5.64c-2.56,2.58-5.1,5.04-7.69,7.44
		l-0.23-0.04C24.9,54.55,30.21,46.34,38,43.03z"/>
</g>
</svg>
