<svg xmlns="http://www.w3.org/2000/svg" width="90.685" height="101.547" viewBox="0 0 90.685 101.547">
  <g id="Group_6594" data-name="Group 6594" transform="translate(-343.167 -326.8)">
    <g id="Group_219" data-name="Group 219" transform="translate(359.689 349.021)">
      <g id="Group_216" data-name="Group 216" transform="translate(15.404 36.865)">
        <path id="Path_147" data-name="Path 147" d="M414.666,383.356l-13.334,5.66-12.873-6.364-.157.066-.172.467.157-.067,12.874,6.364,13.334-5.66.007,0a.1.1,0,0,0,.048-.051h0l.171-.466A.1.1,0,0,1,414.666,383.356Z" transform="translate(-372.489 -382.651)" fill="#fff"/>
        <path id="Path_148" data-name="Path 148" d="M373.522,400.275l-.171.467c-.03.081.073.17.162.132l12.973-5.555.172-.467-12.974,5.556C373.595,400.445,373.492,400.357,373.522,400.275Z" transform="translate(-373.345 -381.944)" fill="#fff"/>
      </g>
      <g id="Group_217" data-name="Group 217" transform="translate(15.575)">
        <path id="Path_149" data-name="Path 149" d="M395.928,347.848c.127-.087.236-.034.221.061l-5.1,27.037L415.5,385.185c.094.038.107.149.017.188l-13.334,5.66-12.873-6.364-.156.066-2.5,12.842-12.974,5.556c-.09.038-.195-.054-.161-.136Z" transform="translate(-373.507 -347.804)" fill="#fff"/>
      </g>
      <path id="Path_150" data-name="Path 150" d="M366.64,358.889c7.5-3.182,17.843-.718,18.357,12.109a14.681,14.681,0,0,1-1.183,5.555c-3.523,8.883-7.22,17.907-10.766,26.731l-1.3.58a.117.117,0,0,1-.165-.125c1.4-5.65,2.964-11.493,4.4-17.1.962-4.325,1.972-8.671,1.37-13.411-.639-3.737-3.487-10.418-8.041-8.486a6.322,6.322,0,0,0-1.257.73c-1.149.992-1.259,2.537-.433,4.547-2.066,2.083-4.112,4.059-6.194,5.993l-.181-.031C356.084,368.174,360.364,361.553,366.64,358.889Z" transform="translate(-358.775 -347.235)" fill="#fff"/>
      <g id="Group_218" data-name="Group 218" transform="translate(0 17.166)">
        <path id="Path_151" data-name="Path 151" d="M361.257,375.537a12.58,12.58,0,0,1-2.3-6.667,9.49,9.49,0,0,1,.584-3.5h0l-.172.465a9.79,9.79,0,0,0-.205,6.059,14.313,14.313,0,0,0,1.92,4.108h0l.181.03c2.082-1.933,4.128-3.91,6.194-5.992l.171-.467c-2.066,2.083-4.112,4.059-6.194,5.993Z" transform="translate(-358.784 -363.954)" fill="#fff"/>
        <path id="Path_152" data-name="Path 152" d="M359.5,365.371h0Z" transform="translate(-358.743 -363.953)" fill="#fff"/>
        <path id="Path_153" data-name="Path 153" d="M383.368,376.182c-3.523,8.883-7.22,17.907-10.766,26.731l-1.3.58a.117.117,0,0,1-.165-.125c1.4-5.65,2.964-11.493,4.4-17.1.962-4.325,1.972-8.671,1.37-13.411-.639-3.737-3.487-10.418-8.041-8.486-.1.043-.206.092-.311.144-.068.034-.136.077-.2.115s-.11.059-.165.092a6.8,6.8,0,0,0-.577.379,2.7,2.7,0,0,0-.788,1.124l-.171.465a2.693,2.693,0,0,1,.788-1.124c.195-.143.385-.265.574-.378l.168-.094c.174-.1.346-.186.514-.258,4.553-1.933,7.4,4.75,8.041,8.486.6,4.741-.409,9.086-1.371,13.412-1.431,5.6-2.991,11.446-4.4,17.1a.116.116,0,0,0,.165.124l1.3-.579c3.546-8.825,7.243-17.849,10.766-26.731.049-.127.1-.255.146-.386l.171-.465C383.466,375.927,383.417,376.056,383.368,376.182Z" transform="translate(-358.329 -364.031)" fill="#fff"/>
      </g>
    </g>
    <path id="Path_154" data-name="Path 154" d="M343.167,358.368l.06,32.269a18.873,18.873,0,0,0,7.329,14.673l25.92,19.772a15.724,15.724,0,0,0,7.3,3.129,12.645,12.645,0,0,0,7.293-1.078l25.867-12.5c.227-.11.448-.232.667-.355-.055.032-.108.067-.163.1l9.645-5.247c4.2-2.284,6.778-6.959,6.767-12.363l-.059-32.27a18.869,18.869,0,0,0-7.322-14.663l-25.927-19.775a15.693,15.693,0,0,0-7.3-3.131,12.615,12.615,0,0,0-7.292,1.081l-25.86,12.5q-.268.129-.528.27l-9.645,5.247c.172-.094.349-.184.528-.271C345.943,347.922,343.156,352.761,343.167,358.368Zm10.594-5.114a13.334,13.334,0,0,1,4.045-9.882l18.976-9.167A11.774,11.774,0,0,1,383.6,333.2a14.659,14.659,0,0,1,6.833,2.926L416.352,355.9a17.653,17.653,0,0,1,6.854,13.719l.06,32.269a13.4,13.4,0,0,1-3.983,9.858l-19.037,9.2a11.815,11.815,0,0,1-6.823,1.009,14.688,14.688,0,0,1-6.83-2.927l-25.927-19.774a17.663,17.663,0,0,1-6.846-13.728Z" transform="translate(0 0)" fill="#fff"/>
  </g>
</svg>
