<svg xmlns="http://www.w3.org/2000/svg" xmlns:xlink="http://www.w3.org/1999/xlink" width="22" height="22" viewBox="0 0 22 22">
  <defs>
    <linearGradient id="linear-gradient" x1="0.5" x2="0.5" y2="1" gradientUnits="objectBoundingBox">
      <stop offset="0" stop-color="#05f2db"/>
      <stop offset="1" stop-color="#00cde2"/>
    </linearGradient>
  </defs>
  <path id="Icon_awesome-whatsapp" data-name="Icon awesome-whatsapp" d="M18.7,5.447A10.905,10.905,0,0,0,1.547,18.6L0,24.25l5.78-1.517a10.869,10.869,0,0,0,5.21,1.326h0a11.007,11.007,0,0,0,11-10.9,10.945,10.945,0,0,0-3.3-7.71ZM11,22.222A9.045,9.045,0,0,1,6.379,20.96l-.329-.2-3.428.9.913-3.344-.216-.344a9.079,9.079,0,1,1,16.839-4.817A9.162,9.162,0,0,1,11,22.222Zm4.97-6.787c-.27-.137-1.611-.8-1.861-.884s-.432-.137-.614.137-.7.884-.864,1.071-.319.206-.589.069a7.415,7.415,0,0,1-3.708-3.241c-.28-.481.28-.447.8-1.488a.5.5,0,0,0-.025-.476c-.069-.137-.614-1.478-.84-2.023s-.447-.457-.614-.467-.339-.01-.521-.01a1.009,1.009,0,0,0-.727.339,3.061,3.061,0,0,0-.953,2.274,5.337,5.337,0,0,0,1.11,2.819,12.173,12.173,0,0,0,4.655,4.115,5.33,5.33,0,0,0,3.271.683,2.79,2.79,0,0,0,1.837-1.3,2.278,2.278,0,0,0,.157-1.3C16.417,15.637,16.235,15.568,15.965,15.435Z" transform="translate(0 -2.25)" fill="url(#linear-gradient)"/>
</svg>
